<?xml version="1.0" encoding="UTF-8"?>
<svg width="4952px" height="716px" viewBox="0 0 4952 716" version="1.1" xmlns="http://www.w3.org/2000/svg" xmlns:xlink="http://www.w3.org/1999/xlink">
    <title>phil.vegas</title>
    <defs>
        <path d="M238.5,683 L238.5,524 C281.166667,524 321,519.333333 358,510 C395,500.666667 427.333333,486 455,466 C482.666667,446 504.5,419.833333 520.5,387.5 C536.5,355.166667 544.5,316 544.5,270 C544.5,224 536.5,184.833333 520.5,152.5 C504.5,120.166667 482.666667,94 455,74 C427.333333,54 395,39.3333333 358,30 C321,20.6666667 281.166667,16 238.5,16 L238.5,16 L25.5,16 L25.5,683 L238.5,683 Z M151.5,603 L125.5,603 L125.5,96 L238.5,96 C268.5,96 296.333333,99.5 322,106.5 C347.666667,113.5 369.833333,124 388.5,138 C407.166667,152 421.666667,170 432,192 C442.333333,214 447.5,240 447.5,270 C447.5,300 442.333333,326 432,348 C421.666667,370 407.166667,388 388.5,402 C369.833333,416 347.666667,426.5 322,433.5 C296.333333,440.5 268.5,444 238.5,444 L238.5,444 L151.5,444 L151.5,603 Z M238.5,420 C262.5,420 285.333333,417.5 307,412.5 C328.666667,407.5 347.833333,399.333333 364.5,388 C381.166667,376.666667 394.5,361.333333 404.5,342 C414.5,322.666667 419.5,298.666667 419.5,270 C419.5,241.333333 414.5,217.333333 404.5,198 C394.5,178.666667 381.166667,163.333333 364.5,152 C347.833333,140.666667 328.666667,132.5 307,127.5 C285.333333,122.5 262.5,120 238.5,120 L238.5,120 L151.5,120 L151.5,420 L238.5,420 Z M247.5,344 L238.5,344 L238.5,196 L247.5,196 C275.5,196 295.666667,202.5 308,215.5 C320.333333,228.5 326.5,246.666667 326.5,270 C326.5,293.333333 320.333333,311.5 308,324.5 C295.666667,337.5 275.5,344 247.5,344 L247.5,344 Z M807.9,683 L807.9,436 L926.9,436 L926.9,683 L1140.9,683 L1140.9,16 L926.9,16 L926.9,243 L807.9,243 L807.9,16 L594.9,16 L594.9,683 L807.9,683 Z M720.9,603 L694.9,603 L694.9,96 L720.9,96 L720.9,326 L1014.9,326 L1014.9,96 L1040.9,96 L1040.9,603 L1014.9,603 L1014.9,350 L720.9,350 L720.9,603 Z M1437.3,683 L1437.3,16 L1211.3,16 L1211.3,683 L1437.3,683 Z M1337.3,603 L1311.3,603 L1311.3,96 L1337.3,96 L1337.3,603 Z M1913.7,683 L1913.7,508 L1729.7,508 L1729.7,16 L1507.7,16 L1507.7,683 L1913.7,683 Z M1857.7,603 L1607.7,603 L1607.7,96 L1633.7,96 L1633.7,579 L1857.7,579 L1857.7,603 Z M2158.1,683 L2158.1,516 L1944.1,516 L1944.1,683 L2158.1,683 Z M2098.1,611 L2004.1,611 L2004.1,588 L2098.1,588 L2098.1,611 Z M2486.5,683 L2746.5,16 L2513.5,16 L2399.5,306 L2286.5,16 L2053.5,16 L2313.5,683 L2486.5,683 Z M2410.5,603 L2389.5,603 L2191.5,96 L2219.5,96 L2399.5,557 L2580.5,96 L2608.5,96 L2410.5,603 Z M3161.9,683 L3161.9,508 L2974.9,508 L2974.9,431 L3151.9,431 L3151.9,265 L2974.9,265 L2974.9,191 L3154.9,191 L3154.9,16 L2761.9,16 L2761.9,683 L3161.9,683 Z M3087.9,603 L2861.9,603 L2861.9,96 L3087.9,96 L3087.9,120 L2887.9,120 L2887.9,336 L3077.9,336 L3077.9,360 L2887.9,360 L2887.9,579 L3087.9,579 L3087.9,603 Z M3557.3,700 C3589.96667,700 3621.63333,695.666667 3652.3,687 C3682.96667,678.333333 3711.46667,666 3737.8,650 C3764.13333,634 3787.96667,614.833333 3809.3,592.5 C3830.63333,570.166667 3848.96667,545.333333 3864.3,518 L3864.3,518 L3864.3,296 L3607.3,296 L3607.3,436 L3667.3,436 C3653.96667,452.666667 3637.96667,465.833333 3619.3,475.5 C3600.63333,485.166667 3579.96667,490 3557.3,490 C3537.96667,490 3519.8,486.5 3502.8,479.5 C3485.8,472.5 3470.96667,462.833333 3458.3,450.5 C3445.63333,438.166667 3435.63333,423.333333 3428.3,406 C3420.96667,388.666667 3417.3,370 3417.3,350 C3417.3,330 3420.63333,311.333333 3427.3,294 C3433.96667,276.666667 3443.13333,261.833333 3454.8,249.5 C3466.46667,237.166667 3480.3,227.5 3496.3,220.5 C3512.3,213.5 3529.96667,210 3549.3,210 C3566.63333,210 3584.3,212.833333 3602.3,218.5 C3620.3,224.166667 3635.3,232.333333 3647.3,243 L3647.3,243 L3768.3,71 C3753.63333,58.3333333 3735.3,46.6666667 3713.3,36 C3694.63333,26.6666667 3671.63333,18.3333333 3644.3,11 C3616.96667,3.66666667 3584.63333,0 3547.3,0 C3499.3,0 3454.46667,9.16666667 3412.8,27.5 C3371.13333,45.8333333 3335.13333,70.8333333 3304.8,102.5 C3274.46667,134.166667 3250.63333,171.333333 3233.3,214 C3215.96667,256.666667 3207.3,302 3207.3,350 C3207.3,399.333333 3216.46667,445.333333 3234.8,488 C3253.13333,530.666667 3278.13333,567.666667 3309.8,599 C3341.46667,630.333333 3378.63333,655 3421.3,673 C3463.96667,691 3509.3,700 3557.3,700 Z M3557.3,606 C3521.96667,606 3488.8,599.666667 3457.8,587 C3426.8,574.333333 3399.63333,556.833333 3376.3,534.5 C3352.96667,512.166667 3334.63333,485.333333 3321.3,454 C3307.96667,422.666667 3301.3,388 3301.3,350 C3301.3,312 3307.8,277.333333 3320.8,246 C3333.8,214.666667 3351.63333,187.833333 3374.3,165.5 C3396.96667,143.166667 3423.63333,125.666667 3454.3,113 C3484.96667,100.333333 3517.96667,94 3553.3,94 C3568.63333,94 3582.63333,95 3595.3,97 C3607.96667,99 3618.96667,101.333333 3628.3,104 C3638.96667,106.666667 3648.63333,110 3657.3,114 L3657.3,114 L3641.3,137 C3633.3,134.333333 3624.63333,131.666667 3615.3,129 C3607.3,127 3597.96667,125 3587.3,123 C3576.63333,121 3565.3,120 3553.3,120 C3521.3,120 3491.63333,125.5 3464.3,136.5 C3436.96667,147.5 3413.13333,163.166667 3392.8,183.5 C3372.46667,203.833333 3356.46667,228.166667 3344.8,256.5 C3333.13333,284.833333 3327.3,316 3327.3,350 C3327.3,384 3333.3,415.166667 3345.3,443.5 C3357.3,471.833333 3373.8,496.166667 3394.8,516.5 C3415.8,536.833333 3440.13333,552.5 3467.8,563.5 C3495.46667,574.5 3525.3,580 3557.3,580 C3597.3,580 3633.8,571 3666.8,553 C3699.8,535 3726.63333,510.666667 3747.3,480 L3747.3,480 L3747.3,380 L3667.3,380 L3667.3,356 L3773.3,356 L3773.3,487 C3749.96667,523 3719.63333,551.833333 3682.3,573.5 C3644.96667,595.166667 3603.3,606 3557.3,606 Z M4074.7,683 L4096.7,623 L4298.7,623 L4320.7,683 L4530.7,683 L4277.7,16 L4117.7,16 L3864.7,683 L4074.7,683 Z M4013.7,603 L3985.7,603 L4178.7,96 L4216.7,96 L4409.7,603 L4381.7,603 L4362.7,553 L4032.7,553 L4013.7,603 Z M4353.7,529 L4197.7,120 L4041.7,529 L4353.7,529 Z M4242.7,476 L4152.7,476 L4197.7,359 L4242.7,476 Z M4709.1,700 C4751.1,700 4787.43333,694.5 4818.1,683.5 C4848.76667,672.5 4873.93333,657.5 4893.6,638.5 C4913.26667,619.5 4927.76667,597.166667 4937.1,571.5 C4946.43333,545.833333 4951.1,518.333333 4951.1,489 C4951.1,461 4946.6,435.666667 4937.6,413 C4928.6,390.333333 4917.6,370 4904.6,352 C4891.6,334 4877.26667,318 4861.6,304 C4845.93333,290 4831.6,277.666667 4818.6,267 C4805.6,256.333333 4794.6,247 4785.6,239 C4776.6,231 4772.1,224.333333 4772.1,219 C4772.1,213 4774.1,208.333333 4778.1,205 C4782.1,201.666667 4786.76667,199.333333 4792.1,198 C4797.43333,196.666667 4803.1,195.833333 4809.1,195.5 C4815.1,195.166667 4820.1,195 4824.1,195 C4831.43333,195 4838.43333,195.333333 4845.1,196 C4851.76667,196.666667 4857.76667,197.333333 4863.1,198 C4869.76667,198.666667 4875.76667,199.333333 4881.1,200 L4881.1,200 L4881.1,13 C4867.1,11 4852.76667,9 4838.1,7 C4825.43333,5.66666667 4811.1,4.16666667 4795.1,2.5 C4779.1,0.833333333 4763.1,0 4747.1,0 C4716.43333,0 4687.6,4.16666667 4660.6,12.5 C4633.6,20.8333333 4610.1,33 4590.1,49 C4570.1,65 4554.43333,85 4543.1,109 C4531.76667,133 4526.1,160.666667 4526.1,192 C4526.1,220 4530.76667,244.833333 4540.1,266.5 C4549.43333,288.166667 4561.26667,307.666667 4575.6,325 C4589.93333,342.333333 4605.26667,357.666667 4621.6,371 C4637.93333,384.333333 4653.26667,396.5 4667.6,407.5 C4681.93333,418.5 4693.76667,428.5 4703.1,437.5 C4712.43333,446.5 4717.1,455.333333 4717.1,464 C4717.1,486.666667 4701.76667,498 4671.1,498 C4653.76667,498 4636.6,497 4619.6,495 C4602.6,493 4587.43333,490.333333 4574.1,487 C4558.1,484.333333 4542.76667,480.666667 4528.1,476 L4528.1,476 L4528.1,676 C4544.1,680.666667 4561.76667,684.666667 4581.1,688 C4597.76667,691.333333 4616.93333,694.166667 4638.6,696.5 C4660.26667,698.833333 4683.76667,700 4709.1,700 Z M4703.1,606 C4692.43333,606 4681.93333,605.5 4671.6,604.5 C4661.26667,603.5 4651.43333,602.333333 4642.1,601 C4631.43333,599.666667 4621.43333,598 4612.1,596 L4612.1,596 L4612.1,570 C4621.43333,572 4631.1,573.666667 4641.1,575 C4659.76667,578.333333 4680.43333,580 4703.1,580 C4741.1,580 4770.93333,571.666667 4792.6,555 C4814.26667,538.333333 4825.1,514 4825.1,482 C4825.1,464.666667 4820.26667,448 4810.6,432 C4800.93333,416 4788.6,400.5 4773.6,385.5 C4758.6,370.5 4742.6,355.666667 4725.6,341 C4708.6,326.333333 4692.6,311.166667 4677.6,295.5 C4662.6,279.833333 4650.26667,263.833333 4640.6,247.5 C4630.93333,231.166667 4626.1,213.666667 4626.1,195 C4626.1,160.333333 4637.76667,134.833333 4661.1,118.5 C4684.43333,102.166667 4714.1,94 4750.1,94 C4756.1,94 4761.93333,94.1666667 4767.6,94.5 C4773.26667,94.8333333 4778.43333,95.3333333 4783.1,96 C4788.43333,96.6666667 4793.43333,97 4798.1,97 L4798.1,97 L4798.1,123 C4792.76667,123 4787.43333,122.666667 4782.1,122 C4776.76667,121.333333 4771.26667,120.833333 4765.6,120.5 C4759.93333,120.166667 4754.43333,120 4749.1,120 C4715.1,120 4690.43333,126.5 4675.1,139.5 C4659.76667,152.5 4652.1,171 4652.1,195 C4652.1,211 4656.93333,226.5 4666.6,241.5 C4676.26667,256.5 4688.6,271.5 4703.6,286.5 C4718.6,301.5 4734.6,316.333333 4751.6,331 C4768.6,345.666667 4784.6,361 4799.6,377 C4814.6,393 4826.93333,409.666667 4836.6,427 C4846.26667,444.333333 4851.1,462.666667 4851.1,482 C4851.1,504.666667 4846.93333,523.833333 4838.6,539.5 C4830.26667,555.166667 4819.1,568 4805.1,578 C4791.1,588 4775.26667,595.166667 4757.6,599.5 C4739.93333,603.833333 4721.76667,606 4703.1,606 Z" id="path-1"></path>
        <filter x="-0.8%" y="-1.8%" width="101.0%" height="105.9%" filterUnits="objectBoundingBox" id="filter-2">
            <feOffset dx="-21" dy="12" in="SourceAlpha" result="shadowOffsetOuter1"></feOffset>
            <feGaussianBlur stdDeviation="2" in="shadowOffsetOuter1" result="shadowBlurOuter1"></feGaussianBlur>
            <feColorMatrix values="0 0 0 0 0.890196078   0 0 0 0 0.0941176471   0 0 0 0 0.215686275  0 0 0 1 0" type="matrix" in="shadowBlurOuter1"></feColorMatrix>
        </filter>
    </defs>
    <g id="Page-1" stroke="none" stroke-width="1" fill="none" fill-rule="evenodd">
        <g id="phil.vegas" fill-rule="nonzero">
            <use fill="black" fill-opacity="1" filter="url(#filter-2)" xlink:href="#path-1"></use>
            <use fill="#B6995A" xlink:href="#path-1"></use>
        </g>
    </g>
</svg>